<svg xmlns="http://www.w3.org/2000/svg" width="16" height="16" viewBox="0 0 16 16">
  <g id="Group_126353" data-name="Group 126353" transform="translate(7176 -18239)">
    <rect id="Rectangle_148594" data-name="Rectangle 148594" width="16" height="16" transform="translate(-7176 18239)" fill="#f864c5" opacity="0"/>
    <path id="Path_121645" data-name="Path 121645" d="M9.655,18.848a7.662,7.662,0,0,0,3.088-.63,8.2,8.2,0,0,0,4.282-4.282,7.918,7.918,0,0,0,0-6.18A8.247,8.247,0,0,0,15.287,5.2a8.047,8.047,0,0,0-2.553-1.729,7.97,7.97,0,0,0-6.172,0A8.179,8.179,0,0,0,2.276,7.756a7.918,7.918,0,0,0,0,6.18,8.24,8.24,0,0,0,4.282,4.282A7.653,7.653,0,0,0,9.655,18.848Zm-2.586-4.71a.654.654,0,0,1-.49-.21.7.7,0,0,1-.2-.5.655.655,0,0,1,.206-.478l2.1-2.1L6.583,8.76a.647.647,0,0,1-.206-.486.689.689,0,0,1,.692-.692.683.683,0,0,1,.486.206l2.1,2.1L11.771,7.78a.688.688,0,0,1,1.178.486.647.647,0,0,1-.206.486l-2.108,2.1,2.1,2.092a.631.631,0,0,1,.206.486.7.7,0,0,1-.2.5.663.663,0,0,1-.5.21.64.64,0,0,1-.494-.206L9.655,11.84,7.571,13.932A.666.666,0,0,1,7.069,14.137Z" transform="translate(-7177.65 18236.152)" fill="#f864c5"/>
  </g>
</svg>
