<svg xmlns="http://www.w3.org/2000/svg" width="16" height="16" viewBox="0 0 16 16">
  <g id="Group_806358" data-name="Group 806358" transform="translate(-63 -117)">
    <circle id="Ellipse_10644" data-name="Ellipse 10644" cx="8" cy="8" r="8" transform="translate(63 117)" fill="#f864c5"/>
    <g id="Group_806341" data-name="Group 806341" transform="translate(22715 23817)">
      <rect id="Rectangle_181875" data-name="Rectangle 181875" width="8" height="8" transform="translate(-22648 -23696)" fill="#0d0d0d" opacity="0"/>
      <path id="Path_615912" data-name="Path 615912" d="M3.208,11.228a.337.337,0,0,0,.34-.34V8.652q.084-.033.347-.1a2.666,2.666,0,0,1,.68-.071,4.623,4.623,0,0,1,1.038.11q.477.11.926.256t.916.258a4.284,4.284,0,0,0,1,.112,3.639,3.639,0,0,0,.722-.054A2.424,2.424,0,0,0,9.66,9a.819.819,0,0,0,.335-.273.774.774,0,0,0,.124-.456V4.19A.349.349,0,0,0,9.989,3.9a.491.491,0,0,0-.32-.105,1.864,1.864,0,0,0-.458.082,3.113,3.113,0,0,1-.8.082,4.277,4.277,0,0,1-1-.112Q6.946,3.74,6.5,3.6T5.567,3.34a4.561,4.561,0,0,0-1.039-.112,3.579,3.579,0,0,0-.715.054,2.5,2.5,0,0,0-.485.16.852.852,0,0,0-.339.264.725.725,0,0,0-.125.446v6.736a.325.325,0,0,0,.1.24A.333.333,0,0,0,3.208,11.228Z" transform="translate(-22650.49 -23699.229)" fill="#0d0d0d"/>
    </g>
  </g>
</svg>
